<mxfile host="app.diagrams.net" agent="Mozilla/5.0 (Windows NT 10.0; Win64; x64) AppleWebKit/537.36 (KHTML, like Gecko) Chrome/139.0.0.0 Safari/537.36" version="27.2.0">
  <diagram name="Página-1" id="qUH3Cb45mdjdp0MA3BL6">
    <mxGraphModel dx="1042" dy="527" grid="1" gridSize="10" guides="1" tooltips="1" connect="1" arrows="1" fold="1" page="1" pageScale="1" pageWidth="3300" pageHeight="4681" math="0" shadow="0">
      <root>
        <mxCell id="0" />
        <mxCell id="1" parent="0" />
        <mxCell id="uiEqAPAhNv8nmmNgFj_g-79" style="edgeStyle=orthogonalEdgeStyle;rounded=0;orthogonalLoop=1;jettySize=auto;html=1;entryX=0.5;entryY=0;entryDx=0;entryDy=0;" edge="1" parent="1" source="uiEqAPAhNv8nmmNgFj_g-1" target="uiEqAPAhNv8nmmNgFj_g-78">
          <mxGeometry relative="1" as="geometry" />
        </mxCell>
        <mxCell id="uiEqAPAhNv8nmmNgFj_g-1" value="" style="ellipse;whiteSpace=wrap;html=1;aspect=fixed;" vertex="1" parent="1">
          <mxGeometry x="1360" y="30" width="30" height="30" as="geometry" />
        </mxCell>
        <mxCell id="uiEqAPAhNv8nmmNgFj_g-4" value="Start" style="text;html=1;align=center;verticalAlign=middle;whiteSpace=wrap;rounded=0;" vertex="1" parent="1">
          <mxGeometry x="1345" width="60" height="30" as="geometry" />
        </mxCell>
        <mxCell id="uiEqAPAhNv8nmmNgFj_g-24" style="edgeStyle=orthogonalEdgeStyle;rounded=0;orthogonalLoop=1;jettySize=auto;html=1;" edge="1" parent="1" source="uiEqAPAhNv8nmmNgFj_g-6" target="uiEqAPAhNv8nmmNgFj_g-16">
          <mxGeometry relative="1" as="geometry" />
        </mxCell>
        <mxCell id="uiEqAPAhNv8nmmNgFj_g-6" value="Escolha da opção (alocar carro, tirar carro, ver lista de vagas alocadas, ver lista de carros alocados, ver vagas restantes" style="rounded=1;whiteSpace=wrap;html=1;" vertex="1" parent="1">
          <mxGeometry x="1250.63" y="240" width="248.75" height="70" as="geometry" />
        </mxCell>
        <mxCell id="uiEqAPAhNv8nmmNgFj_g-28" style="edgeStyle=orthogonalEdgeStyle;rounded=0;orthogonalLoop=1;jettySize=auto;html=1;" edge="1" parent="1" source="uiEqAPAhNv8nmmNgFj_g-10" target="uiEqAPAhNv8nmmNgFj_g-27">
          <mxGeometry relative="1" as="geometry" />
        </mxCell>
        <mxCell id="uiEqAPAhNv8nmmNgFj_g-10" value="1. Alocar Carro" style="rounded=1;whiteSpace=wrap;html=1;" vertex="1" parent="1">
          <mxGeometry x="610" y="570" width="120" height="60" as="geometry" />
        </mxCell>
        <mxCell id="uiEqAPAhNv8nmmNgFj_g-11" value="2. Remover Carro" style="rounded=1;whiteSpace=wrap;html=1;" vertex="1" parent="1">
          <mxGeometry x="960" y="570" width="120" height="60" as="geometry" />
        </mxCell>
        <mxCell id="uiEqAPAhNv8nmmNgFj_g-12" value="3. Ver Lista de Carros alocados" style="rounded=1;whiteSpace=wrap;html=1;" vertex="1" parent="1">
          <mxGeometry x="1315.01" y="570" width="120" height="60" as="geometry" />
        </mxCell>
        <mxCell id="uiEqAPAhNv8nmmNgFj_g-13" value="5. Ver lista de Vagas Desocupadas" style="rounded=1;whiteSpace=wrap;html=1;" vertex="1" parent="1">
          <mxGeometry x="2060" y="570" width="120" height="60" as="geometry" />
        </mxCell>
        <mxCell id="uiEqAPAhNv8nmmNgFj_g-14" value="4. Ver Lista de Vagas Ocupadas" style="rounded=1;whiteSpace=wrap;html=1;" vertex="1" parent="1">
          <mxGeometry x="1750" y="570" width="120" height="60" as="geometry" />
        </mxCell>
        <mxCell id="uiEqAPAhNv8nmmNgFj_g-18" style="edgeStyle=orthogonalEdgeStyle;rounded=0;orthogonalLoop=1;jettySize=auto;html=1;entryX=0.5;entryY=0;entryDx=0;entryDy=0;" edge="1" parent="1" source="uiEqAPAhNv8nmmNgFj_g-16" target="uiEqAPAhNv8nmmNgFj_g-12">
          <mxGeometry relative="1" as="geometry" />
        </mxCell>
        <mxCell id="uiEqAPAhNv8nmmNgFj_g-19" style="edgeStyle=orthogonalEdgeStyle;rounded=0;orthogonalLoop=1;jettySize=auto;html=1;entryX=0.5;entryY=0;entryDx=0;entryDy=0;" edge="1" parent="1" source="uiEqAPAhNv8nmmNgFj_g-16" target="uiEqAPAhNv8nmmNgFj_g-14">
          <mxGeometry relative="1" as="geometry" />
        </mxCell>
        <mxCell id="uiEqAPAhNv8nmmNgFj_g-20" style="edgeStyle=orthogonalEdgeStyle;rounded=0;orthogonalLoop=1;jettySize=auto;html=1;" edge="1" parent="1" source="uiEqAPAhNv8nmmNgFj_g-16" target="uiEqAPAhNv8nmmNgFj_g-11">
          <mxGeometry relative="1" as="geometry" />
        </mxCell>
        <mxCell id="uiEqAPAhNv8nmmNgFj_g-21" style="edgeStyle=orthogonalEdgeStyle;rounded=0;orthogonalLoop=1;jettySize=auto;html=1;" edge="1" parent="1" source="uiEqAPAhNv8nmmNgFj_g-16" target="uiEqAPAhNv8nmmNgFj_g-10">
          <mxGeometry relative="1" as="geometry" />
        </mxCell>
        <mxCell id="uiEqAPAhNv8nmmNgFj_g-22" style="edgeStyle=orthogonalEdgeStyle;rounded=0;orthogonalLoop=1;jettySize=auto;html=1;entryX=0.5;entryY=0;entryDx=0;entryDy=0;" edge="1" parent="1" source="uiEqAPAhNv8nmmNgFj_g-16" target="uiEqAPAhNv8nmmNgFj_g-13">
          <mxGeometry relative="1" as="geometry" />
        </mxCell>
        <mxCell id="uiEqAPAhNv8nmmNgFj_g-16" value="" style="rounded=0;whiteSpace=wrap;html=1;" vertex="1" parent="1">
          <mxGeometry x="1220" y="440" width="310" height="30" as="geometry" />
        </mxCell>
        <mxCell id="uiEqAPAhNv8nmmNgFj_g-29" style="edgeStyle=orthogonalEdgeStyle;rounded=0;orthogonalLoop=1;jettySize=auto;html=1;" edge="1" parent="1" source="uiEqAPAhNv8nmmNgFj_g-27" target="uiEqAPAhNv8nmmNgFj_g-30">
          <mxGeometry relative="1" as="geometry">
            <mxPoint x="380" y="780" as="targetPoint" />
          </mxGeometry>
        </mxCell>
        <mxCell id="uiEqAPAhNv8nmmNgFj_g-27" value="Inserir placa do carro" style="rounded=1;whiteSpace=wrap;html=1;" vertex="1" parent="1">
          <mxGeometry x="320" y="650" width="120" height="60" as="geometry" />
        </mxCell>
        <mxCell id="uiEqAPAhNv8nmmNgFj_g-31" style="edgeStyle=orthogonalEdgeStyle;rounded=0;orthogonalLoop=1;jettySize=auto;html=1;" edge="1" parent="1" source="uiEqAPAhNv8nmmNgFj_g-30" target="uiEqAPAhNv8nmmNgFj_g-32">
          <mxGeometry relative="1" as="geometry">
            <mxPoint x="380" y="910" as="targetPoint" />
          </mxGeometry>
        </mxCell>
        <mxCell id="uiEqAPAhNv8nmmNgFj_g-30" value="Inserir modelo do carro" style="rounded=1;whiteSpace=wrap;html=1;" vertex="1" parent="1">
          <mxGeometry x="320" y="780" width="120" height="60" as="geometry" />
        </mxCell>
        <mxCell id="uiEqAPAhNv8nmmNgFj_g-34" style="edgeStyle=orthogonalEdgeStyle;rounded=0;orthogonalLoop=1;jettySize=auto;html=1;" edge="1" parent="1" source="uiEqAPAhNv8nmmNgFj_g-32">
          <mxGeometry relative="1" as="geometry">
            <mxPoint x="380" y="1040" as="targetPoint" />
          </mxGeometry>
        </mxCell>
        <mxCell id="uiEqAPAhNv8nmmNgFj_g-32" value="Inserir nome do dono do carro" style="rounded=1;whiteSpace=wrap;html=1;" vertex="1" parent="1">
          <mxGeometry x="320" y="910" width="120" height="60" as="geometry" />
        </mxCell>
        <mxCell id="uiEqAPAhNv8nmmNgFj_g-37" style="edgeStyle=orthogonalEdgeStyle;rounded=0;orthogonalLoop=1;jettySize=auto;html=1;entryX=0.5;entryY=0;entryDx=0;entryDy=0;" edge="1" parent="1" source="uiEqAPAhNv8nmmNgFj_g-35" target="uiEqAPAhNv8nmmNgFj_g-36">
          <mxGeometry relative="1" as="geometry" />
        </mxCell>
        <mxCell id="uiEqAPAhNv8nmmNgFj_g-35" value="Opção de inserir CPF do dono do carro" style="rounded=1;whiteSpace=wrap;html=1;" vertex="1" parent="1">
          <mxGeometry x="320" y="1040" width="120" height="60" as="geometry" />
        </mxCell>
        <mxCell id="uiEqAPAhNv8nmmNgFj_g-40" style="edgeStyle=orthogonalEdgeStyle;rounded=0;orthogonalLoop=1;jettySize=auto;html=1;entryX=0.5;entryY=0;entryDx=0;entryDy=0;" edge="1" parent="1" source="uiEqAPAhNv8nmmNgFj_g-36" target="uiEqAPAhNv8nmmNgFj_g-63">
          <mxGeometry relative="1" as="geometry">
            <mxPoint x="210" y="1250" as="targetPoint" />
          </mxGeometry>
        </mxCell>
        <mxCell id="uiEqAPAhNv8nmmNgFj_g-41" style="edgeStyle=orthogonalEdgeStyle;rounded=0;orthogonalLoop=1;jettySize=auto;html=1;" edge="1" parent="1" source="uiEqAPAhNv8nmmNgFj_g-36" target="uiEqAPAhNv8nmmNgFj_g-65">
          <mxGeometry relative="1" as="geometry">
            <mxPoint x="550" y="1250" as="targetPoint" />
          </mxGeometry>
        </mxCell>
        <mxCell id="uiEqAPAhNv8nmmNgFj_g-36" value="" style="rhombus;whiteSpace=wrap;html=1;" vertex="1" parent="1">
          <mxGeometry x="355" y="1150" width="50" height="50" as="geometry" />
        </mxCell>
        <mxCell id="uiEqAPAhNv8nmmNgFj_g-42" style="edgeStyle=orthogonalEdgeStyle;rounded=0;orthogonalLoop=1;jettySize=auto;html=1;" edge="1" parent="1" target="uiEqAPAhNv8nmmNgFj_g-43">
          <mxGeometry relative="1" as="geometry">
            <mxPoint x="210" y="1430" as="targetPoint" />
            <mxPoint x="210" y="1310" as="sourcePoint" />
          </mxGeometry>
        </mxCell>
        <mxCell id="uiEqAPAhNv8nmmNgFj_g-50" style="edgeStyle=orthogonalEdgeStyle;rounded=0;orthogonalLoop=1;jettySize=auto;html=1;entryX=0;entryY=0.5;entryDx=0;entryDy=0;" edge="1" parent="1" source="uiEqAPAhNv8nmmNgFj_g-43" target="uiEqAPAhNv8nmmNgFj_g-46">
          <mxGeometry relative="1" as="geometry" />
        </mxCell>
        <mxCell id="uiEqAPAhNv8nmmNgFj_g-43" value="Inserir cpf do dono do carro" style="rounded=1;whiteSpace=wrap;html=1;" vertex="1" parent="1">
          <mxGeometry x="150" y="1400" width="120" height="60" as="geometry" />
        </mxCell>
        <mxCell id="uiEqAPAhNv8nmmNgFj_g-86" style="edgeStyle=orthogonalEdgeStyle;rounded=0;orthogonalLoop=1;jettySize=auto;html=1;entryX=0.5;entryY=0;entryDx=0;entryDy=0;" edge="1" parent="1" source="uiEqAPAhNv8nmmNgFj_g-46" target="uiEqAPAhNv8nmmNgFj_g-84">
          <mxGeometry relative="1" as="geometry" />
        </mxCell>
        <mxCell id="uiEqAPAhNv8nmmNgFj_g-46" value="" style="rounded=0;whiteSpace=wrap;html=1;" vertex="1" parent="1">
          <mxGeometry x="240" y="1540" width="290" height="30" as="geometry" />
        </mxCell>
        <mxCell id="uiEqAPAhNv8nmmNgFj_g-60" style="edgeStyle=orthogonalEdgeStyle;rounded=0;orthogonalLoop=1;jettySize=auto;html=1;entryX=0.5;entryY=0;entryDx=0;entryDy=0;" edge="1" parent="1" source="uiEqAPAhNv8nmmNgFj_g-56" target="uiEqAPAhNv8nmmNgFj_g-59">
          <mxGeometry relative="1" as="geometry" />
        </mxCell>
        <mxCell id="uiEqAPAhNv8nmmNgFj_g-56" value="" style="rhombus;whiteSpace=wrap;html=1;" vertex="1" parent="1">
          <mxGeometry x="360" y="1770" width="50" height="50" as="geometry" />
        </mxCell>
        <mxCell id="uiEqAPAhNv8nmmNgFj_g-72" style="edgeStyle=orthogonalEdgeStyle;rounded=0;orthogonalLoop=1;jettySize=auto;html=1;entryX=0.5;entryY=0;entryDx=0;entryDy=0;" edge="1" parent="1" source="uiEqAPAhNv8nmmNgFj_g-58" target="uiEqAPAhNv8nmmNgFj_g-71">
          <mxGeometry relative="1" as="geometry" />
        </mxCell>
        <mxCell id="uiEqAPAhNv8nmmNgFj_g-58" value="Não" style="rounded=1;whiteSpace=wrap;html=1;" vertex="1" parent="1">
          <mxGeometry x="510" y="1870" width="120" height="60" as="geometry" />
        </mxCell>
        <mxCell id="uiEqAPAhNv8nmmNgFj_g-68" style="edgeStyle=orthogonalEdgeStyle;rounded=0;orthogonalLoop=1;jettySize=auto;html=1;entryX=0.5;entryY=0;entryDx=0;entryDy=0;" edge="1" parent="1" source="uiEqAPAhNv8nmmNgFj_g-59" target="uiEqAPAhNv8nmmNgFj_g-67">
          <mxGeometry relative="1" as="geometry" />
        </mxCell>
        <mxCell id="uiEqAPAhNv8nmmNgFj_g-59" value="Sim" style="rounded=1;whiteSpace=wrap;html=1;" vertex="1" parent="1">
          <mxGeometry x="160" y="1870" width="120" height="60" as="geometry" />
        </mxCell>
        <mxCell id="uiEqAPAhNv8nmmNgFj_g-61" style="edgeStyle=orthogonalEdgeStyle;rounded=0;orthogonalLoop=1;jettySize=auto;html=1;exitX=0.5;exitY=1;exitDx=0;exitDy=0;" edge="1" parent="1" source="uiEqAPAhNv8nmmNgFj_g-58" target="uiEqAPAhNv8nmmNgFj_g-58">
          <mxGeometry relative="1" as="geometry" />
        </mxCell>
        <mxCell id="uiEqAPAhNv8nmmNgFj_g-62" style="edgeStyle=orthogonalEdgeStyle;rounded=0;orthogonalLoop=1;jettySize=auto;html=1;entryX=0.443;entryY=-0.067;entryDx=0;entryDy=0;entryPerimeter=0;" edge="1" parent="1" source="uiEqAPAhNv8nmmNgFj_g-56" target="uiEqAPAhNv8nmmNgFj_g-58">
          <mxGeometry relative="1" as="geometry" />
        </mxCell>
        <mxCell id="uiEqAPAhNv8nmmNgFj_g-63" value="Sim" style="ellipse;whiteSpace=wrap;html=1;" vertex="1" parent="1">
          <mxGeometry x="150" y="1240" width="120" height="80" as="geometry" />
        </mxCell>
        <mxCell id="uiEqAPAhNv8nmmNgFj_g-66" style="edgeStyle=orthogonalEdgeStyle;rounded=0;orthogonalLoop=1;jettySize=auto;html=1;entryX=1;entryY=0.5;entryDx=0;entryDy=0;" edge="1" parent="1" source="uiEqAPAhNv8nmmNgFj_g-65" target="uiEqAPAhNv8nmmNgFj_g-46">
          <mxGeometry relative="1" as="geometry" />
        </mxCell>
        <mxCell id="uiEqAPAhNv8nmmNgFj_g-65" value="Não" style="ellipse;whiteSpace=wrap;html=1;" vertex="1" parent="1">
          <mxGeometry x="490" y="1240" width="120" height="80" as="geometry" />
        </mxCell>
        <mxCell id="uiEqAPAhNv8nmmNgFj_g-70" style="edgeStyle=orthogonalEdgeStyle;rounded=0;orthogonalLoop=1;jettySize=auto;html=1;entryX=0.5;entryY=0;entryDx=0;entryDy=0;" edge="1" parent="1" source="uiEqAPAhNv8nmmNgFj_g-67" target="uiEqAPAhNv8nmmNgFj_g-69">
          <mxGeometry relative="1" as="geometry" />
        </mxCell>
        <mxCell id="uiEqAPAhNv8nmmNgFj_g-67" value="Escolher número da vaga disponível" style="rounded=1;whiteSpace=wrap;html=1;" vertex="1" parent="1">
          <mxGeometry x="160" y="2020" width="120" height="60" as="geometry" />
        </mxCell>
        <mxCell id="uiEqAPAhNv8nmmNgFj_g-83" style="edgeStyle=orthogonalEdgeStyle;rounded=0;orthogonalLoop=1;jettySize=auto;html=1;entryX=0;entryY=0.5;entryDx=0;entryDy=0;" edge="1" parent="1" source="uiEqAPAhNv8nmmNgFj_g-69" target="uiEqAPAhNv8nmmNgFj_g-88">
          <mxGeometry relative="1" as="geometry">
            <mxPoint x="350" y="2360" as="targetPoint" />
          </mxGeometry>
        </mxCell>
        <mxCell id="uiEqAPAhNv8nmmNgFj_g-69" value="Adicionar carro na vaga escolhida" style="rounded=1;whiteSpace=wrap;html=1;" vertex="1" parent="1">
          <mxGeometry x="160" y="2160" width="120" height="60" as="geometry" />
        </mxCell>
        <mxCell id="uiEqAPAhNv8nmmNgFj_g-74" style="edgeStyle=orthogonalEdgeStyle;rounded=0;orthogonalLoop=1;jettySize=auto;html=1;entryX=0.5;entryY=0;entryDx=0;entryDy=0;" edge="1" parent="1" source="uiEqAPAhNv8nmmNgFj_g-71" target="uiEqAPAhNv8nmmNgFj_g-77">
          <mxGeometry relative="1" as="geometry">
            <mxPoint x="570" y="2160" as="targetPoint" />
          </mxGeometry>
        </mxCell>
        <mxCell id="uiEqAPAhNv8nmmNgFj_g-71" value="Mensagem: &quot;Não há vagas disponíveis no momento!&quot;" style="rounded=1;whiteSpace=wrap;html=1;" vertex="1" parent="1">
          <mxGeometry x="510" y="2010" width="120" height="60" as="geometry" />
        </mxCell>
        <mxCell id="uiEqAPAhNv8nmmNgFj_g-77" value="Voltar ao menu principal" style="shape=parallelogram;perimeter=parallelogramPerimeter;whiteSpace=wrap;html=1;fixedSize=1;" vertex="1" parent="1">
          <mxGeometry x="510" y="2160" width="120" height="60" as="geometry" />
        </mxCell>
        <mxCell id="uiEqAPAhNv8nmmNgFj_g-80" style="edgeStyle=orthogonalEdgeStyle;rounded=0;orthogonalLoop=1;jettySize=auto;html=1;" edge="1" parent="1" source="uiEqAPAhNv8nmmNgFj_g-78" target="uiEqAPAhNv8nmmNgFj_g-6">
          <mxGeometry relative="1" as="geometry" />
        </mxCell>
        <mxCell id="uiEqAPAhNv8nmmNgFj_g-78" value="Menu de interação (principal)" style="shape=parallelogram;perimeter=parallelogramPerimeter;whiteSpace=wrap;html=1;fixedSize=1;" vertex="1" parent="1">
          <mxGeometry x="1315" y="130" width="120" height="60" as="geometry" />
        </mxCell>
        <mxCell id="uiEqAPAhNv8nmmNgFj_g-85" style="edgeStyle=orthogonalEdgeStyle;rounded=0;orthogonalLoop=1;jettySize=auto;html=1;entryX=0.5;entryY=0;entryDx=0;entryDy=0;" edge="1" parent="1" source="uiEqAPAhNv8nmmNgFj_g-84" target="uiEqAPAhNv8nmmNgFj_g-56">
          <mxGeometry relative="1" as="geometry" />
        </mxCell>
        <mxCell id="uiEqAPAhNv8nmmNgFj_g-84" value="&quot;Há vagas disponíveis no momento?&quot;" style="ellipse;whiteSpace=wrap;html=1;aspect=fixed;" vertex="1" parent="1">
          <mxGeometry x="330" y="1620" width="110" height="110" as="geometry" />
        </mxCell>
        <mxCell id="uiEqAPAhNv8nmmNgFj_g-90" style="edgeStyle=orthogonalEdgeStyle;rounded=0;orthogonalLoop=1;jettySize=auto;html=1;entryX=0.5;entryY=0;entryDx=0;entryDy=0;" edge="1" parent="1" source="uiEqAPAhNv8nmmNgFj_g-88" target="uiEqAPAhNv8nmmNgFj_g-89">
          <mxGeometry relative="1" as="geometry" />
        </mxCell>
        <mxCell id="uiEqAPAhNv8nmmNgFj_g-88" value="&quot;Deseja alocar mais carros?&quot;" style="ellipse;whiteSpace=wrap;html=1;aspect=fixed;" vertex="1" parent="1">
          <mxGeometry x="355" y="2320" width="105" height="105" as="geometry" />
        </mxCell>
        <mxCell id="uiEqAPAhNv8nmmNgFj_g-94" style="edgeStyle=orthogonalEdgeStyle;rounded=0;orthogonalLoop=1;jettySize=auto;html=1;entryX=0.5;entryY=0;entryDx=0;entryDy=0;" edge="1" parent="1" source="uiEqAPAhNv8nmmNgFj_g-89" target="uiEqAPAhNv8nmmNgFj_g-92">
          <mxGeometry relative="1" as="geometry" />
        </mxCell>
        <mxCell id="uiEqAPAhNv8nmmNgFj_g-95" style="edgeStyle=orthogonalEdgeStyle;rounded=0;orthogonalLoop=1;jettySize=auto;html=1;entryX=0.5;entryY=0;entryDx=0;entryDy=0;" edge="1" parent="1" source="uiEqAPAhNv8nmmNgFj_g-89" target="uiEqAPAhNv8nmmNgFj_g-93">
          <mxGeometry relative="1" as="geometry" />
        </mxCell>
        <mxCell id="uiEqAPAhNv8nmmNgFj_g-89" value="" style="rhombus;whiteSpace=wrap;html=1;" vertex="1" parent="1">
          <mxGeometry x="381.25" y="2480" width="52.5" height="50" as="geometry" />
        </mxCell>
        <mxCell id="uiEqAPAhNv8nmmNgFj_g-106" style="edgeStyle=orthogonalEdgeStyle;rounded=0;orthogonalLoop=1;jettySize=auto;html=1;entryX=0.5;entryY=0;entryDx=0;entryDy=0;" edge="1" parent="1" source="uiEqAPAhNv8nmmNgFj_g-92" target="uiEqAPAhNv8nmmNgFj_g-105">
          <mxGeometry relative="1" as="geometry" />
        </mxCell>
        <mxCell id="uiEqAPAhNv8nmmNgFj_g-92" value="Não" style="ellipse;whiteSpace=wrap;html=1;" vertex="1" parent="1">
          <mxGeometry x="540" y="2590" width="120" height="80" as="geometry" />
        </mxCell>
        <mxCell id="uiEqAPAhNv8nmmNgFj_g-101" style="edgeStyle=orthogonalEdgeStyle;rounded=0;orthogonalLoop=1;jettySize=auto;html=1;" edge="1" parent="1" source="uiEqAPAhNv8nmmNgFj_g-93" target="uiEqAPAhNv8nmmNgFj_g-102">
          <mxGeometry relative="1" as="geometry">
            <mxPoint x="230" y="2770" as="targetPoint" />
          </mxGeometry>
        </mxCell>
        <mxCell id="uiEqAPAhNv8nmmNgFj_g-93" value="Sim" style="ellipse;whiteSpace=wrap;html=1;" vertex="1" parent="1">
          <mxGeometry x="170" y="2590" width="120" height="80" as="geometry" />
        </mxCell>
        <mxCell id="uiEqAPAhNv8nmmNgFj_g-96" value="OPÇÃO 1" style="text;html=1;align=center;verticalAlign=middle;whiteSpace=wrap;rounded=0;" vertex="1" parent="1">
          <mxGeometry x="600" y="540" width="60" height="30" as="geometry" />
        </mxCell>
        <mxCell id="uiEqAPAhNv8nmmNgFj_g-97" value="OPÇÃO 2" style="text;html=1;align=center;verticalAlign=middle;whiteSpace=wrap;rounded=0;" vertex="1" parent="1">
          <mxGeometry x="950" y="540" width="60" height="30" as="geometry" />
        </mxCell>
        <mxCell id="uiEqAPAhNv8nmmNgFj_g-98" value="OPÇÃO 1" style="text;html=1;align=center;verticalAlign=middle;whiteSpace=wrap;rounded=0;" vertex="1" parent="1">
          <mxGeometry x="1310" y="540" width="60" height="30" as="geometry" />
        </mxCell>
        <mxCell id="uiEqAPAhNv8nmmNgFj_g-99" value="OPÇÃO 1" style="text;html=1;align=center;verticalAlign=middle;whiteSpace=wrap;rounded=0;" vertex="1" parent="1">
          <mxGeometry x="1740" y="540" width="60" height="30" as="geometry" />
        </mxCell>
        <mxCell id="uiEqAPAhNv8nmmNgFj_g-100" value="OPÇÃO 1" style="text;html=1;align=center;verticalAlign=middle;whiteSpace=wrap;rounded=0;" vertex="1" parent="1">
          <mxGeometry x="2050" y="540" width="60" height="30" as="geometry" />
        </mxCell>
        <mxCell id="uiEqAPAhNv8nmmNgFj_g-102" value="voltar para&amp;nbsp;&lt;div&gt;OPÇÃO 1&lt;/div&gt;" style="shape=parallelogram;perimeter=parallelogramPerimeter;whiteSpace=wrap;html=1;fixedSize=1;" vertex="1" parent="1">
          <mxGeometry x="170" y="2780" width="120" height="60" as="geometry" />
        </mxCell>
        <mxCell id="uiEqAPAhNv8nmmNgFj_g-105" value="Voltar ao menu principal" style="shape=parallelogram;perimeter=parallelogramPerimeter;whiteSpace=wrap;html=1;fixedSize=1;" vertex="1" parent="1">
          <mxGeometry x="540" y="2780" width="120" height="60" as="geometry" />
        </mxCell>
      </root>
    </mxGraphModel>
  </diagram>
</mxfile>
